<svg xmlns="http://www.w3.org/2000/svg" xmlns:xlink="http://www.w3.org/1999/xlink" xmlns:lucid="lucid" width="2636.59" height="2037.36"><g transform="translate(0 0)" lucid:page-tab-id="0_0"><path d="M838.84 618h81v120.73h-220V592h132zm-139 0h139" stroke="#333" stroke-width="2" fill="#cfe4ff"/><use xlink:href="#a" transform="matrix(1,0,0,1,711.8449821684135,626.0118299818544) translate(67.025 56.1)"/><path d="M1358.84 618h81v120.73h-220V592h132zm-139 0h139" stroke="#333" stroke-width="2" fill="#cfe4ff"/><use xlink:href="#b" transform="matrix(1,0,0,1,1231.8449821684135,626.0118299818544) translate(75.575 56.1)"/><path d="M838.84 1018h81v120.73h-220V992h132zm-139 0h139" stroke="#333" stroke-width="2" fill="#cfe4ff"/><use xlink:href="#c" transform="matrix(1,0,0,1,711.8449821684135,1026.0118299818541) translate(44.074999999999996 56.1)"/><path d="M1358.84 1018h81v120.73h-220V992h132zm-139 0h139" stroke="#333" stroke-width="2" fill="#cfe4ff"/><use xlink:href="#d" transform="matrix(1,0,0,1,1231.8449821684135,1026.0118299818541) translate(62.575 56.1)"/><path d="M1078.84 266h81v120.72h-220V240h132zm-139 0h139" stroke="#333" stroke-width="2" fill="#cfe4ff"/><use xlink:href="#e" transform="matrix(1,0,0,1,951.8449821684135,274) translate(39.075 56.1)"/><path d="M1287.4 488.87l3.2.42 3 1.23 2.6 2 2 2.6 1.24 3 .42 3.2v89.18h-1v-89.1l-.4-3.02-1.13-2.75-1.84-2.4-2.4-1.83-2.75-1.14-3.02-.4h-90.74v-1zm-236.66-8.52l1.14 2.75 1.84 2.4 2.4 1.83 2.74 1.14 3.02.4h90.74v1h-90.8l-3.22-.42-3-1.25-2.6-2-2-2.6-1.23-3-.43-3.2v-73.3h1v73.23z" stroke="#6db1ff" stroke-width=".05" fill="#6db1ff"/><path d="M1299.86 591h-1v-.5h1z" fill="#6db1ff"/><path d="M1299.9 591.04h-1.06v-.57h1.05zm-1-.52v.47h.94v-.48z" stroke="#6db1ff" stroke-width=".05" fill="#6db1ff"/><path d="M1054.48 403.6h-9.27l4.64-14.26z" fill="#6db1ff"/><path d="M1055.17 404.1h-10.65l5.32-16.38zm-9.27-1h7.9l-3.96-12.14z" stroke="#6db1ff" stroke-width=".05" fill="#6db1ff"/><use xlink:href="#f" transform="matrix(1,0,0,1,1152.6175610129603,479.0390920742605) translate(0 14.431423611111112)"/><use xlink:href="#g" transform="matrix(1,0,0,1,1152.6175610129603,479.0390920742605) translate(4.320987654320988 14.431423611111112)"/><path d="M800.9 990.5h-1V875.7h1zm0-135.45h-1v-98.93h1z" stroke="#333" stroke-width=".05" fill="#333"/><path d="M800.9 991h-1v-.5h1z" fill="#333"/><path d="M800.93 991.04h-1.05v-.57h1.05zm-1-.52v.47h.95v-.48z" stroke="#333" stroke-width=".05" fill="#333"/><path d="M805.05 755.62h-9.28l4.64-14.27z" fill="#333"/><path d="M805.73 756.12H795.1l5.3-16.4zm-9.27-1h7.9l-3.95-12.15z" stroke="#333" stroke-width=".05" fill="#333"/><use xlink:href="#f" transform="matrix(1,0,0,1,768.0741471473309,855.0450070651876) translate(0 14.431423611111112)"/><use xlink:href="#h" transform="matrix(1,0,0,1,768.0741471473309,855.0450070651876) translate(4.320987654320988 14.431423611111112)"/><path d="M1340.34 990.5h-1V875.7h1zm0-135.45h-1v-98.93h1z" stroke="#333" stroke-width=".05" fill="#333"/><path d="M1340.34 991h-1v-.5h1z" fill="#333"/><path d="M1340.37 991.04h-1.05v-.57h1.05zm-1-.52v.47h.95v-.48z" stroke="#333" stroke-width=".05" fill="#333"/><path d="M1344.48 755.62h-9.27l4.64-14.27z" fill="#333"/><path d="M1345.17 756.12h-10.65l5.32-16.4zm-9.27-1h7.9l-3.96-12.15z" stroke="#333" stroke-width=".05" fill="#333"/><use xlink:href="#f" transform="matrix(1,0,0,1,1307.5093943019012,855.0450070651876) translate(0 14.431423611111112)"/><use xlink:href="#h" transform="matrix(1,0,0,1,1307.5093943019012,855.0450070651876) translate(4.320987654320988 14.431423611111112)"/><path d="M905.42 489.87H817l-3.02.4-2.76 1.13-2.4 1.84-1.82 2.4-1.15 2.74-.4 3.02v89.1h-1v-89.17l.43-3.2 1.24-3 2-2.6 2.6-2 3-1.24 3.2-.43h88.5zm144.92-12.47l-.42 3.2-1.24 3-2 2.6-2.6 2-3 1.25-3.2.42h-88.5v-1h88.43l3.03-.4 2.75-1.14 2.4-1.84 1.83-2.4 1.15-2.75.4-3.02V404.1h1z" stroke="#6db1ff" stroke-width=".05" fill="#6db1ff"/><path d="M805.46 591h-1v-.5h1z" fill="#6db1ff"/><path d="M805.48 591.04h-1.05v-.57h1.05zm-1-.52v.47h.95v-.48z" stroke="#6db1ff" stroke-width=".05" fill="#6db1ff"/><path d="M1054.48 403.6h-9.27l4.64-14.26z" fill="#6db1ff"/><path d="M1055.17 404.1h-10.65l5.32-16.38zm-9.27-1h7.9l-3.96-12.14z" stroke="#6db1ff" stroke-width=".05" fill="#6db1ff"/><use xlink:href="#f" transform="matrix(1,0,0,1,905.4154026447657,479.0390920742605) translate(0 14.431423611111112)"/><use xlink:href="#g" transform="matrix(1,0,0,1,905.4154026447657,479.0390920742605) translate(4.320987654320988 14.431423611111112)"/><path d="M438.84 1018h81v120.73h-220V992h132zm-139 0h139" stroke="#333" stroke-width="2" fill="#635dff"/><use xlink:href="#i" transform="matrix(1,0,0,1,311.8449821684135,1026.0118299818541) translate(-6.849999999999994 56.1)"/><path d="M564.42 1065.87h-43.08v-1h43.08zm118.04 0h-27.2v-1h27.2z" stroke="#333" stroke-width=".05" fill="#333"/><path d="M521.36 1065.87h-.52v-1h.52z" fill="#333"/><path d="M521.38 1065.9h-.56v-1.05h.56zm-.5-1v.95h.45v-.95z" stroke="#333" stroke-width=".05" fill="#333"/><path d="M697.23 1065.37l-14.27 4.64v-9.26z" fill="#333"/><path d="M698.84 1065.37l-16.38 5.33v-10.65zm-15.38 3.95l12.15-3.95-12.14-3.95z" stroke="#333" stroke-width=".05" fill="#333"/><use xlink:href="#j" transform="matrix(1,0,0,1,564.4199821684135,1054.5718299818543) translate(0.005000000000002558 14.4)"/><use xlink:href="#k" transform="matrix(1,0,0,1,564.4199821684135,1054.5718299818543) translate(54.955000000000005 14.4)"/><path d="M438.84 618h81v120.73h-220V592h132zm-139 0h139" stroke="#333" stroke-width="2" fill="#635dff"/><use xlink:href="#l" transform="matrix(1,0,0,1,311.8449821684135,626.0118299818544) translate(16.099999999999994 56.1)"/><path d="M400.34 990.5h-1V875.7h1zm0-135.45h-1v-98.93h1z" stroke="#333" stroke-width=".05" fill="#333"/><path d="M400.34 991h-1v-.5h1z" fill="#333"/><path d="M400.37 991.04h-1.05v-.57h1.05zm-1-.52v.47h.95v-.48z" stroke="#333" stroke-width=".05" fill="#333"/><path d="M404.48 755.62h-9.27l4.64-14.27z" fill="#333"/><path d="M405.17 756.12h-10.65l5.32-16.4zm-9.27-1h7.9l-3.96-12.15z" stroke="#333" stroke-width=".05" fill="#333"/><use xlink:href="#f" transform="matrix(1,0,0,1,367.5093943019011,855.0450070651876) translate(0 14.431423611111112)"/><use xlink:href="#h" transform="matrix(1,0,0,1,367.5093943019011,855.0450070651876) translate(4.320987654320988 14.431423611111112)"/><path d="M564.42 672.5h-43.08v-1h43.08zm118.04 0h-27.2v-1h27.2z" stroke="#333" stroke-width=".05" fill="#333"/><path d="M521.36 672.5h-.52v-1h.52z" fill="#333"/><path d="M521.38 672.54h-.56v-1.05h.56zm-.5-1v.95h.45v-.96z" stroke="#333" stroke-width=".05" fill="#333"/><path d="M697.23 672l-14.27 4.65v-9.27z" fill="#333"/><path d="M698.84 672l-16.38 5.34V666.7zm-15.38 3.96L695.6 672l-12.14-3.94z" stroke="#333" stroke-width=".05" fill="#333"/><use xlink:href="#j" transform="matrix(1,0,0,1,564.4199821684135,661.2118299818544) translate(0.005000000000002558 14.4)"/><use xlink:href="#k" transform="matrix(1,0,0,1,564.4199821684135,661.2118299818544) translate(54.955000000000005 14.4)"/><path d="M696.9 489.87H399.92l-3 .4-2.77 1.13-2.4 1.84-1.82 2.4-1.14 2.74-.4 3.02v89.1h-1v-89.17l.42-3.2 1.24-3 2-2.6 2.6-2 3-1.24 3.2-.43H696.9zm208.52 0H740.86v-1h164.56zm144.92-12.47l-.42 3.2-1.24 3-2 2.6-2.6 2-3 1.25-3.2.42h-88.5v-1h88.43l3.03-.4 2.75-1.14 2.4-1.84 1.83-2.4 1.15-2.75.4-3.02V404.1h1z" stroke="#6db1ff" stroke-width=".05" fill="#6db1ff"/><path d="M388.4 591h-1v-.5h1z" fill="#6db1ff"/><path d="M388.43 591.04h-1.05v-.57h1.05zm-1-.52v.47h.95v-.48z" stroke="#6db1ff" stroke-width=".05" fill="#6db1ff"/><path d="M1054.48 403.6h-9.27l4.64-14.26z" fill="#6db1ff"/><path d="M1055.17 404.1h-10.65l5.32-16.38zm-9.27-1h7.9l-3.96-12.14z" stroke="#6db1ff" stroke-width=".05" fill="#6db1ff"/><use xlink:href="#f" transform="matrix(1,0,0,1,696.8859745734358,479.0390920742605) translate(0 14.431423611111112)"/><use xlink:href="#g" transform="matrix(1,0,0,1,696.8859745734358,479.0390920742605) translate(4.320987654320988 14.431423611111112)"/><path d="M438.84 261.08h81V381.8h-220V235.08h132zm-139 0h139" stroke="#333" stroke-width="2" fill="#635dff"/><use xlink:href="#m" transform="matrix(1,0,0,1,311.8449821684135,269.07580680477673) translate(-11.849999999999994 56.1)"/><path d="M649.52 312.5H521.34v-1h128.18zm272.94 0h-112.3v-1h112.3z" stroke="#333" stroke-width=".05" fill="#333"/><path d="M521.36 312.5h-.52v-1h.52z" fill="#333"/><path d="M521.38 312.54h-.56v-1.05h.56zm-.5-1v.95h.45v-.96z" stroke="#333" stroke-width=".05" fill="#333"/><path d="M937.23 312l-14.27 4.65v-9.27z" fill="#333"/><path d="M938.84 312l-16.38 5.34V306.7zm-15.38 3.96L935.6 312l-12.14-3.94z" stroke="#333" stroke-width=".05" fill="#333"/><use xlink:href="#n" transform="matrix(1,0,0,1,649.5199821684134,301.2118299818544) translate(0.0049999999999954525 14.4)"/><use xlink:href="#o" transform="matrix(1,0,0,1,649.5199821684134,301.2118299818544) translate(66.805 14.4)"/><use xlink:href="#k" transform="matrix(1,0,0,1,649.5199821684134,301.2118299818544) translate(124.75500000000001 14.4)"/><path d="M388.4 590.5h-1V455.05h1zm0-156.12h-1v-35.2h1z" stroke="#6db1ff" stroke-width=".05" fill="#6db1ff"/><path d="M388.4 591h-1v-.5h1z" fill="#6db1ff"/><path d="M388.43 591.04h-1.05v-.57h1.05zm-1-.52v.47h.95v-.48z" stroke="#6db1ff" stroke-width=".05" fill="#6db1ff"/><path d="M392.54 398.68h-9.27l4.63-14.27z" fill="#6db1ff"/><path d="M393.22 399.18h-10.64l5.32-16.38zm-9.27-1h7.9l-3.95-12.15z" stroke="#6db1ff" stroke-width=".05" fill="#6db1ff"/><use xlink:href="#f" transform="matrix(1,0,0,1,365.91378941287184,434.3844951943997) translate(0 14.431423611111112)"/><use xlink:href="#g" transform="matrix(1,0,0,1,365.91378941287184,434.3844951943997) translate(4.320987654320988 14.431423611111112)"/><path d="M1758.84 618h81v120.73h-220V592h132zm-139 0h139" stroke="#333" stroke-width="2" fill="#635dff"/><use xlink:href="#p" transform="matrix(1,0,0,1,1631.8449821684135,626.0118299818544) translate(24.650000000000006 56.1)"/><path d="M1694.02 313.28l3 1.24 2.6 2 2 2.6 1.23 3 .42 3.2v265.2h-1V325.38l-.4-3.02-1.13-2.76-1.84-2.4-2.4-1.82-2.74-1.14-3.02-.4h-98.12v-1h98.2zm-516.8.58v-1h371.43v1z" stroke="#6db1ff" stroke-width=".05" fill="#6db1ff"/><path d="M1703.27 591h-1v-.5h1z" fill="#6db1ff"/><path d="M1703.3 591.04h-1.05v-.57h1.05zm-1-.52v.47h.95v-.48z" stroke="#6db1ff" stroke-width=".05" fill="#6db1ff"/><path d="M1176.73 318l-14.27-4.64 14.27-4.64z" fill="#6db1ff"/><path d="M1177.23 318.68l-16.4-5.32 16.4-5.32zm-13.15-5.32l12.15 3.95v-7.9z" stroke="#6db1ff" stroke-width=".05" fill="#6db1ff"/><use xlink:href="#f" transform="matrix(1,0,0,1,1548.6483046110645,303.0331770833333) translate(0 14.431423611111112)"/><use xlink:href="#g" transform="matrix(1,0,0,1,1548.6483046110645,303.0331770833333) translate(4.320987654320988 14.431423611111112)"/><path d="M1694.02 194l3 1.24 2.6 2 2 2.6 1.23 3 .42 3.2V590.5h-1V206.1l-.4-3-1.13-2.76-1.84-2.4-2.4-1.83-2.74-1.13-3.02-.4h-447.98v-1h448.05zm-495.23.58H393.86l-3.02.4-2.75 1.13-2.4 1.85-1.83 2.4-1.14 2.74-.4 3v11.6h-1v-11.66l.43-3.2 1.24-3 2-2.6 2.6-2 3-1.24 3.2-.42h805z" stroke="#6db1ff" stroke-width=".05" fill="#6db1ff"/><path d="M1703.27 591h-1v-.5h1z" fill="#6db1ff"/><path d="M1703.3 591.04h-1.05v-.57h1.05zm-1-.52v.47h.95v-.48z" stroke="#6db1ff" stroke-width=".05" fill="#6db1ff"/><path d="M381.83 232.46l-4.63-14.27h9.27z" fill="#6db1ff"/><path d="M381.83 234.08l-5.32-16.4h10.66zm-3.94-15.4l3.93 12.16 3.95-12.15z" stroke="#6db1ff" stroke-width=".05" fill="#6db1ff"/><use xlink:href="#f" transform="matrix(1,0,0,1,1198.785060730711,183.74898388811008) translate(0 14.431423611111112)"/><use xlink:href="#g" transform="matrix(1,0,0,1,1198.785060730711,183.74898388811008) translate(4.320987654320988 14.431423611111112)"/><path d="M1484.42 665.87h-27.2v-1h27.2zm133.92 0h-43.07v-1h43.07z" stroke="#333" stroke-width=".05" fill="#333"/><path d="M1618.84 665.87h-.5v-1h.5z" fill="#333"/><path d="M1618.87 665.9h-.56v-1.05h.57zm-.5-1v.95h.45v-.95z" stroke="#333" stroke-width=".05" fill="#333"/><path d="M1456.73 670l-14.27-4.63 14.27-4.63z" fill="#333"/><path d="M1457.23 670.7l-16.4-5.33 16.4-5.32zm-13.15-5.33l12.15 3.95v-7.9z" stroke="#333" stroke-width=".05" fill="#333"/><use xlink:href="#j" transform="matrix(1,0,0,1,1484.4199821684135,654.5718299818544) translate(0.005000000000002558 14.4)"/><use xlink:href="#k" transform="matrix(1,0,0,1,1484.4199821684135,654.5718299818544) translate(54.955000000000005 14.4)"/><path d="M919.84 1340c0-4.4 3.6-8 8-8h254c4.42 0 8 3.6 8 8v104c0 4.43-3.58 8-8 8h-254c-4.4 0-8-3.57-8-8z" stroke="#333" fill="#635dff"/><use xlink:href="#q" transform="matrix(1,0,0,1,919.8449821684135,1332.0118299818544) translate(39.53000000000001 63.15)"/><path d="M1042.88 1235.12l3.2.42 3 1.25 2.6 1.98 2 2.6 1.24 3 .42 3.2v83.43h-1v-83.35l-.4-3-1.13-2.77-1.83-2.4-2.4-1.82-2.74-1.14-3.02-.4H754.34v-1zm-632.14-8.5l1.14 2.74 1.84 2.4 2.4 1.82 2.74 1.15 3.02.4h288.48v1H421.8l-3.2-.43-3-1.24-2.6-2-2-2.6-1.23-3-.43-3.2v-67.54h1v67.47z" stroke="#6db1ff" stroke-width=".05" fill="#6db1ff"/><path d="M1055.34 1331.5h-1v-.5h1z" fill="#6db1ff"/><path d="M1055.37 1331.54h-1.05v-.57h1.05zm-1-.52v.47h.95v-.48z" stroke="#6db1ff" stroke-width=".05" fill="#6db1ff"/><path d="M414.48 1155.62h-9.27l4.64-14.27z" fill="#6db1ff"/><path d="M415.17 1156.12h-10.65l5.32-16.4zm-9.27-1h7.9l-3.96-12.15z" stroke="#6db1ff" stroke-width=".05" fill="#6db1ff"/><use xlink:href="#f" transform="matrix(1,0,0,1,710.3581597339999,1225.2950070651875) translate(0 14.431423611111112)"/><use xlink:href="#g" transform="matrix(1,0,0,1,710.3581597339999,1225.2950070651875) translate(4.320987654320988 14.431423611111112)"/><path d="M1170.36 1236.12h-103.48l-3.02.4-2.75 1.14-2.38 1.83-1.84 2.38-1.14 2.76-.4 3v83.37h-1v-83.4l.43-3.22 1.24-3 2-2.6 2.6-2 3-1.24 3.2-.42h103.56zm159.98-12.47l-.42 3.22-1.24 3-2 2.6-2.6 2-3 1.23-3.2.42h-103.55v-1h103.48l3.03-.4 2.75-1.14 2.4-1.83 1.83-2.4 1.15-2.74.4-3v-67.48h1z" stroke="#6db1ff" stroke-width=".05" fill="#6db1ff"/><path d="M1055.34 1331.5h-1v-.5h1z" fill="#6db1ff"/><path d="M1055.37 1331.54h-1.05v-.57h1.05zm-1-.52v.47h.95v-.48z" stroke="#6db1ff" stroke-width=".05" fill="#6db1ff"/><path d="M1334.48 1155.62h-9.27l4.64-14.27z" fill="#6db1ff"/><path d="M1335.17 1156.12h-10.65l5.32-16.4zm-9.27-1h7.9l-3.96-12.15z" stroke="#6db1ff" stroke-width=".05" fill="#6db1ff"/><g><use xlink:href="#f" transform="matrix(1,0,0,1,1170.3581597339999,1225.2950070651875) translate(0 14.431423611111112)"/><use xlink:href="#g" transform="matrix(1,0,0,1,1170.3581597339999,1225.2950070651875) translate(4.320987654320988 14.431423611111112)"/></g><path d="M1170.36 1232.5h-103.48l-3.02.4-2.75 1.15-2.38 1.83-1.84 2.4-1.14 2.75-.4 3v86.98h-1V1244l.43-3.2 1.24-3 2-2.6 2.6-2 3-1.25 3.2-.42h103.56zm559.98-12.46l-.42 3.22-1.24 3-2 2.6-2.6 2-3 1.23-3.2.4h-503.55v-1h503.48l3.03-.38 2.75-1.15 2.4-1.83 1.83-2.4 1.15-2.74.4-3.02V756.12h1z" stroke="#6db1ff" stroke-width=".05" fill="#6db1ff"/><path d="M1055.34 1331.5h-1v-.5h1z" fill="#6db1ff"/><path d="M1055.37 1331.54h-1.05v-.57h1.05zm-1-.52v.47h.95v-.48z" stroke="#6db1ff" stroke-width=".05" fill="#6db1ff"/><path d="M1734.48 755.62h-9.27l4.64-14.27z" fill="#6db1ff"/><path d="M1735.17 756.12h-10.65l5.32-16.4zm-9.27-1h7.9l-3.96-12.15z" stroke="#6db1ff" stroke-width=".05" fill="#6db1ff"/><g><use xlink:href="#f" transform="matrix(1,0,0,1,1570.8279324487576,1236.0118299818541) translate(0 14.431423611111112)"/><use xlink:href="#g" transform="matrix(1,0,0,1,1570.8279324487576,1236.0118299818541) translate(4.320987654320988 14.431423611111112)"/></g><path d="M20 118.54h236.4l23.6 23.6v94.4H20z" stroke="#333" fill="#fff"/><path d="M256.4 119v23.14h23.12" stroke="#333" fill="#fff"/><g><use xlink:href="#r" transform="matrix(1,0,0,1,25,123.53790340238837) translate(5.650000000000006 17.80625)"/><use xlink:href="#s" transform="matrix(1,0,0,1,25,123.53790340238837) translate(18.099999999999994 39.40625)"/><use xlink:href="#t" transform="matrix(1,0,0,1,25,123.53790340238837) translate(36.05 39.40625)"/><use xlink:href="#u" transform="matrix(1,0,0,1,25,123.53790340238837) translate(66.05 39.40625)"/><use xlink:href="#v" transform="matrix(1,0,0,1,25,123.53790340238837) translate(147.95000000000002 39.40625)"/><use xlink:href="#w" transform="matrix(1,0,0,1,25,123.53790340238837) translate(171.95000000000002 39.40625)"/><use xlink:href="#x" transform="matrix(1,0,0,1,25,123.53790340238837) translate(196.95000000000002 39.40625)"/><use xlink:href="#y" transform="matrix(1,0,0,1,25,123.53790340238837) translate(5.299999999999983 61.00625)"/><use xlink:href="#z" transform="matrix(1,0,0,1,25,123.53790340238837) translate(78.29999999999998 61.00625)"/><use xlink:href="#w" transform="matrix(1,0,0,1,25,123.53790340238837) translate(97.24999999999999 61.00625)"/><use xlink:href="#A" transform="matrix(1,0,0,1,25,123.53790340238837) translate(122.24999999999999 61.00625)"/><use xlink:href="#B" transform="matrix(1,0,0,1,25,123.53790340238837) translate(162.2 61.00625)"/><use xlink:href="#C" transform="matrix(1,0,0,1,25,123.53790340238837) translate(15.075000000000017 82.60625000000002)"/><use xlink:href="#D" transform="matrix(1,0,0,1,25,123.53790340238837) translate(45.07500000000002 82.60625000000002)"/><use xlink:href="#E" transform="matrix(1,0,0,1,25,123.53790340238837) translate(63.02500000000002 82.60625000000002)"/><use xlink:href="#v" transform="matrix(1,0,0,1,25,123.53790340238837) translate(107.02500000000002 82.60625000000002)"/><use xlink:href="#F" transform="matrix(1,0,0,1,25,123.53790340238837) translate(131.02500000000003 82.60625000000002)"/><use xlink:href="#G" transform="matrix(1,0,0,1,25,123.53790340238837) translate(146.025 82.60625000000002)"/><use xlink:href="#x" transform="matrix(1,0,0,1,25,123.53790340238837) translate(199.975 82.60625000000002)"/><use xlink:href="#y" transform="matrix(1,0,0,1,25,123.53790340238837) translate(18.625 104.20625000000001)"/><use xlink:href="#H" transform="matrix(1,0,0,1,25,123.53790340238837) translate(91.625 104.20625000000001)"/><use xlink:href="#G" transform="matrix(1,0,0,1,25,123.53790340238837) translate(112.575 104.20625000000001)"/><use xlink:href="#I" transform="matrix(1,0,0,1,25,123.53790340238837) translate(166.525 104.20625000000001)"/></g><path d="M1209.84 1260h214.04l25.96 25.96v103.84h-240z" stroke="#333" fill="#fff"/><path d="M1423.88 1260.48v25.48h25.5" stroke="#333" fill="#fff"/><g><use xlink:href="#J" transform="matrix(1,0,0,1,1214.8449821684135,1265) translate(19.099999999999994 29.4)"/><use xlink:href="#K" transform="matrix(1,0,0,1,1214.8449821684135,1265) translate(49.099999999999994 29.4)"/><use xlink:href="#L" transform="matrix(1,0,0,1,1214.8449821684135,1265) translate(147 29.4)"/><use xlink:href="#M" transform="matrix(1,0,0,1,1214.8449821684135,1265) translate(7.150000000000006 51)"/><use xlink:href="#N" transform="matrix(1,0,0,1,1214.8449821684135,1265) translate(50.150000000000006 51)"/><use xlink:href="#O" transform="matrix(1,0,0,1,1214.8449821684135,1265) translate(126 51)"/><use xlink:href="#P" transform="matrix(1,0,0,1,1214.8449821684135,1265) translate(155 51)"/><use xlink:href="#Q" transform="matrix(1,0,0,1,1214.8449821684135,1265) translate(182 51)"/><use xlink:href="#R" transform="matrix(1,0,0,1,1214.8449821684135,1265) translate(41.650000000000006 72.60000000000001)"/><use xlink:href="#S" transform="matrix(1,0,0,1,1214.8449821684135,1265) translate(119.5 72.60000000000001)"/><use xlink:href="#T" transform="matrix(1,0,0,1,1214.8449821684135,1265) translate(169.35 72.60000000000001)"/><use xlink:href="#U" transform="matrix(1,0,0,1,1214.8449821684135,1265) translate(41.650000000000006 94.20000000000002)"/></g><defs><path fill="#333" d="M96-169c-40 0-48 33-48 73s9 75 48 75c24 0 41-14 43-38l32 2c-6 37-31 61-74 61-59 0-76-41-82-99-10-93 101-131 147-64 4 7 5 14 7 22l-32 3c-4-21-16-35-41-35" id="V"/><path fill="#333" d="M100-194c62-1 85 37 85 99 1 63-27 99-86 99S16-35 15-95c0-66 28-99 85-99zM99-20c44 1 53-31 53-75 0-43-8-75-51-75s-53 32-53 75 10 74 51 75" id="W"/><path fill="#333" d="M117-194c89-4 53 116 60 194h-32v-121c0-31-8-49-39-48C34-167 62-67 57 0H25l-1-190h30c1 10-1 24 2 32 11-22 29-35 61-36" id="X"/><path fill="#333" d="M135-143c-3-34-86-38-87 0 15 53 115 12 119 90S17 21 10-45l28-5c4 36 97 45 98 0-10-56-113-15-118-90-4-57 82-63 122-42 12 7 21 19 24 35" id="Y"/><path fill="#333" d="M24 0v-261h32V0H24" id="Z"/><path fill="#333" d="M100-194c63 0 86 42 84 106H49c0 40 14 67 53 68 26 1 43-12 49-29l28 8c-11 28-37 45-77 45C44 4 14-33 15-96c1-61 26-98 85-98zm52 81c6-60-76-77-97-28-3 7-6 17-6 28h103" id="aa"/><g id="a"><use transform="matrix(0.05,0,0,0.05,0,0)" xlink:href="#V"/><use transform="matrix(0.05,0,0,0.05,9,0)" xlink:href="#W"/><use transform="matrix(0.05,0,0,0.05,19,0)" xlink:href="#X"/><use transform="matrix(0.05,0,0,0.05,29,0)" xlink:href="#Y"/><use transform="matrix(0.05,0,0,0.05,38,0)" xlink:href="#W"/><use transform="matrix(0.05,0,0,0.05,48,0)" xlink:href="#Z"/><use transform="matrix(0.05,0,0,0.05,51.95,0)" xlink:href="#aa"/></g><path fill="#333" d="M177-190C167-65 218 103 67 71c-23-6-38-20-44-43l32-5c15 47 100 32 89-28v-30C133-14 115 1 83 1 29 1 15-40 15-95c0-56 16-97 71-98 29-1 48 16 59 35 1-10 0-23 2-32h30zM94-22c36 0 50-32 50-73 0-42-14-75-50-75-39 0-46 34-46 75s6 73 46 73" id="ab"/><path fill="#333" d="M114-163C36-179 61-72 57 0H25l-1-190h30c1 12-1 29 2 39 6-27 23-49 58-41v29" id="ac"/><path fill="#333" d="M16-82v-28h88v28H16" id="ad"/><path fill="#333" d="M84 4C-5 8 30-112 23-190h32v120c0 31 7 50 39 49 72-2 45-101 50-169h31l1 190h-30c-1-10 1-25-2-33-11 22-28 36-60 37" id="ae"/><path fill="#333" d="M24-231v-30h32v30H24zM24 0v-190h32V0H24" id="af"/><g id="b"><use transform="matrix(0.05,0,0,0.05,0,0)" xlink:href="#ab"/><use transform="matrix(0.05,0,0,0.05,10,0)" xlink:href="#ac"/><use transform="matrix(0.05,0,0,0.05,15.949999999999998,0)" xlink:href="#V"/><use transform="matrix(0.05,0,0,0.05,24.95,0)" xlink:href="#ad"/><use transform="matrix(0.05,0,0,0.05,30.899999999999995,0)" xlink:href="#ae"/><use transform="matrix(0.05,0,0,0.05,40.9,0)" xlink:href="#af"/></g><path fill="#333" d="M106-169C34-169 62-67 57 0H25v-261h32l-1 103c12-21 28-36 61-36 89 0 53 116 60 194h-32v-121c2-32-8-49-39-48" id="ag"/><path fill="#333" d="M141-36C126-15 110 5 73 4 37 3 15-17 15-53c-1-64 63-63 125-63 3-35-9-54-41-54-24 1-41 7-42 31l-33-3c5-37 33-52 76-52 45 0 72 20 72 64v82c-1 20 7 32 28 27v20c-31 9-61-2-59-35zM48-53c0 20 12 33 32 33 41-3 63-29 60-74-43 2-92-5-92 41" id="ah"/><path fill="#333" d="M59-47c-2 24 18 29 38 22v24C64 9 27 4 27-40v-127H5v-23h24l9-43h21v43h35v23H59v120" id="ai"/><g id="c"><use transform="matrix(0.05,0,0,0.05,0,0)" xlink:href="#V"/><use transform="matrix(0.05,0,0,0.05,9,0)" xlink:href="#W"/><use transform="matrix(0.05,0,0,0.05,19,0)" xlink:href="#X"/><use transform="matrix(0.05,0,0,0.05,29,0)" xlink:href="#Y"/><use transform="matrix(0.05,0,0,0.05,38,0)" xlink:href="#W"/><use transform="matrix(0.05,0,0,0.05,48,0)" xlink:href="#Z"/><use transform="matrix(0.05,0,0,0.05,51.95,0)" xlink:href="#aa"/><use transform="matrix(0.05,0,0,0.05,61.95,0)" xlink:href="#ad"/><use transform="matrix(0.05,0,0,0.05,67.9,0)" xlink:href="#V"/><use transform="matrix(0.05,0,0,0.05,76.9,0)" xlink:href="#ag"/><use transform="matrix(0.05,0,0,0.05,86.9,0)" xlink:href="#ah"/><use transform="matrix(0.05,0,0,0.05,96.9,0)" xlink:href="#ac"/><use transform="matrix(0.05,0,0,0.05,102.85000000000001,0)" xlink:href="#ai"/></g><g id="d"><use transform="matrix(0.05,0,0,0.05,0,0)" xlink:href="#ab"/><use transform="matrix(0.05,0,0,0.05,10,0)" xlink:href="#ac"/><use transform="matrix(0.05,0,0,0.05,15.949999999999998,0)" xlink:href="#V"/><use transform="matrix(0.05,0,0,0.05,24.95,0)" xlink:href="#ad"/><use transform="matrix(0.05,0,0,0.05,30.899999999999995,0)" xlink:href="#V"/><use transform="matrix(0.05,0,0,0.05,39.9,0)" xlink:href="#ag"/><use transform="matrix(0.05,0,0,0.05,49.9,0)" xlink:href="#ah"/><use transform="matrix(0.05,0,0,0.05,59.900000000000006,0)" xlink:href="#ac"/><use transform="matrix(0.05,0,0,0.05,65.85,0)" xlink:href="#ai"/></g><path fill="#333" d="M210-169c-67 3-38 105-44 169h-31v-121c0-29-5-50-35-48C34-165 62-65 56 0H25l-1-190h30c1 10-1 24 2 32 10-44 99-50 107 0 11-21 27-35 58-36 85-2 47 119 55 194h-31v-121c0-29-5-49-35-48" id="aj"/><path fill="#333" d="M115-194c55 1 70 41 70 98S169 2 115 4C84 4 66-9 55-30l1 105H24l-1-265h31l2 30c10-21 28-34 59-34zm-8 174c40 0 45-34 45-75s-6-73-45-74c-42 0-51 32-51 76 0 43 10 73 51 73" id="ak"/><g id="e"><use transform="matrix(0.05,0,0,0.05,0,0)" xlink:href="#ae"/><use transform="matrix(0.05,0,0,0.05,10,0)" xlink:href="#af"/><use transform="matrix(0.05,0,0,0.05,13.949999999999998,0)" xlink:href="#ad"/><use transform="matrix(0.05,0,0,0.05,19.9,0)" xlink:href="#V"/><use transform="matrix(0.05,0,0,0.05,28.899999999999995,0)" xlink:href="#W"/><use transform="matrix(0.05,0,0,0.05,38.9,0)" xlink:href="#aj"/><use transform="matrix(0.05,0,0,0.05,53.85,0)" xlink:href="#ak"/><use transform="matrix(0.05,0,0,0.05,63.85,0)" xlink:href="#W"/><use transform="matrix(0.05,0,0,0.05,73.85,0)" xlink:href="#X"/><use transform="matrix(0.05,0,0,0.05,83.85,0)" xlink:href="#aa"/><use transform="matrix(0.05,0,0,0.05,93.85,0)" xlink:href="#X"/><use transform="matrix(0.05,0,0,0.05,103.84999999999998,0)" xlink:href="#ai"/><use transform="matrix(0.05,0,0,0.05,108.84999999999998,0)" xlink:href="#Y"/></g><path fill="#333" d="M280-548l258 397H397L102-539v-19l295-389h141zm330 0l258 397H727L432-539v-19l295-389h141" id="al"/><path fill="#333" d="M244-949l295 389v19L244-152H102l258-398-258-399h142zm349 0l295 389v19L593-152H451l258-398-258-399h142" id="am"/><g id="g"><use transform="matrix(0.007595486111111112,0,0,0.007595486111111112,0,0)" xlink:href="#al"/><use transform="matrix(0.04320987654320988,0,0,0.04320987654320988,7.299262152777779,0)" xlink:href="#ae"/><use transform="matrix(0.04320987654320988,0,0,0.04320987654320988,15.941237461419755,0)" xlink:href="#Y"/><use transform="matrix(0.04320987654320988,0,0,0.04320987654320988,23.71901523919753,0)" xlink:href="#aa"/><use transform="matrix(0.007595486111111112,0,0,0.007595486111111112,32.360990547839506,0)" xlink:href="#am"/></g><path fill="#333" d="M85-194c31 0 48 13 60 33l-1-100h32l1 261h-30c-2-10 0-23-3-31C134-8 116 4 85 4 32 4 16-35 15-94c0-66 23-100 70-100zm9 24c-40 0-46 34-46 75 0 40 6 74 45 74 42 0 51-32 51-76 0-42-9-74-50-73" id="an"/><path fill="#333" d="M179-190L93 31C79 59 56 82 12 73V49c39 6 53-20 64-50L1-190h34L92-34l54-156h33" id="ao"/><g id="h"><use transform="matrix(0.007595486111111112,0,0,0.007595486111111112,0,0)" xlink:href="#al"/><use transform="matrix(0.04320987654320988,0,0,0.04320987654320988,7.299262152777779,0)" xlink:href="#an"/><use transform="matrix(0.04320987654320988,0,0,0.04320987654320988,15.941237461419755,0)" xlink:href="#aa"/><use transform="matrix(0.04320987654320988,0,0,0.04320987654320988,24.58321277006173,0)" xlink:href="#ak"/><use transform="matrix(0.04320987654320988,0,0,0.04320987654320988,33.22518807870371,0)" xlink:href="#Z"/><use transform="matrix(0.04320987654320988,0,0,0.04320987654320988,36.63876832561729,0)" xlink:href="#W"/><use transform="matrix(0.04320987654320988,0,0,0.04320987654320988,45.28074363425927,0)" xlink:href="#ao"/><use transform="matrix(0.007595486111111112,0,0,0.007595486111111112,53.058521412037045,0)" xlink:href="#am"/></g><path fill="#fff" d="M106-169C34-169 62-67 57 0H25v-261h32l-1 103c12-21 28-36 61-36 89 0 53 116 60 194h-32v-121c2-32-8-49-39-48" id="ap"/><path fill="#fff" d="M84 4C-5 8 30-112 23-190h32v120c0 31 7 50 39 49 72-2 45-101 50-169h31l1 190h-30c-1-10 1-25-2-33-11 22-28 36-60 37" id="aq"/><path fill="#fff" d="M115-194c53 0 69 39 70 98 0 66-23 100-70 100C84 3 66-7 56-30L54 0H23l1-261h32v101c10-23 28-34 59-34zm-8 174c40 0 45-34 45-75 0-40-5-75-45-74-42 0-51 32-51 76 0 43 10 73 51 73" id="ar"/><path fill="#fff" d="M16-82v-28h88v28H16" id="as"/><path fill="#fff" d="M100-194c62-1 85 37 85 99 1 63-27 99-86 99S16-35 15-95c0-66 28-99 85-99zM99-20c44 1 53-31 53-75 0-43-8-75-51-75s-53 32-53 75 10 74 51 75" id="at"/><path fill="#fff" d="M101-234c-31-9-42 10-38 44h38v23H63V0H32v-167H5v-23h27c-7-52 17-82 69-68v24" id="au"/><path fill="#fff" d="M135-143c-3-34-86-38-87 0 15 53 115 12 119 90S17 21 10-45l28-5c4 36 97 45 98 0-10-56-113-15-118-90-4-57 82-63 122-42 12 7 21 19 24 35" id="av"/><path fill="#fff" d="M96-169c-40 0-48 33-48 73s9 75 48 75c24 0 41-14 43-38l32 2c-6 37-31 61-74 61-59 0-76-41-82-99-10-93 101-131 147-64 4 7 5 14 7 22l-32 3c-4-21-16-35-41-35" id="aw"/><path fill="#fff" d="M117-194c89-4 53 116 60 194h-32v-121c0-31-8-49-39-48C34-167 62-67 57 0H25l-1-190h30c1 10-1 24 2 32 11-22 29-35 61-36" id="ax"/><path fill="#fff" d="M24 0v-261h32V0H24" id="ay"/><path fill="#fff" d="M100-194c63 0 86 42 84 106H49c0 40 14 67 53 68 26 1 43-12 49-29l28 8c-11 28-37 45-77 45C44 4 14-33 15-96c1-61 26-98 85-98zm52 81c6-60-76-77-97-28-3 7-6 17-6 28h103" id="az"/><path fill="#fff" d="M141-36C126-15 110 5 73 4 37 3 15-17 15-53c-1-64 63-63 125-63 3-35-9-54-41-54-24 1-41 7-42 31l-33-3c5-37 33-52 76-52 45 0 72 20 72 64v82c-1 20 7 32 28 27v20c-31 9-61-2-59-35zM48-53c0 20 12 33 32 33 41-3 63-29 60-74-43 2-92-5-92 41" id="aA"/><path fill="#fff" d="M114-163C36-179 61-72 57 0H25l-1-190h30c1 12-1 29 2 39 6-27 23-49 58-41v29" id="aB"/><path fill="#fff" d="M59-47c-2 24 18 29 38 22v24C64 9 27 4 27-40v-127H5v-23h24l9-43h21v43h35v23H59v120" id="aC"/><g id="i"><use transform="matrix(0.05,0,0,0.05,0,0)" xlink:href="#ap"/><use transform="matrix(0.05,0,0,0.05,10,0)" xlink:href="#aq"/><use transform="matrix(0.05,0,0,0.05,20,0)" xlink:href="#ar"/><use transform="matrix(0.05,0,0,0.05,30,0)" xlink:href="#as"/><use transform="matrix(0.05,0,0,0.05,35.95,0)" xlink:href="#at"/><use transform="matrix(0.05,0,0,0.05,45.95,0)" xlink:href="#au"/><use transform="matrix(0.05,0,0,0.05,50.95,0)" xlink:href="#as"/><use transform="matrix(0.05,0,0,0.05,56.900000000000006,0)" xlink:href="#ap"/><use transform="matrix(0.05,0,0,0.05,66.9,0)" xlink:href="#aq"/><use transform="matrix(0.05,0,0,0.05,76.9,0)" xlink:href="#ar"/><use transform="matrix(0.05,0,0,0.05,86.9,0)" xlink:href="#av"/><use transform="matrix(0.05,0,0,0.05,95.9,0)" xlink:href="#as"/><use transform="matrix(0.05,0,0,0.05,101.85000000000001,0)" xlink:href="#aw"/><use transform="matrix(0.05,0,0,0.05,110.85000000000001,0)" xlink:href="#at"/><use transform="matrix(0.05,0,0,0.05,120.85000000000001,0)" xlink:href="#ax"/><use transform="matrix(0.05,0,0,0.05,130.85000000000002,0)" xlink:href="#av"/><use transform="matrix(0.05,0,0,0.05,139.85000000000002,0)" xlink:href="#at"/><use transform="matrix(0.05,0,0,0.05,149.85000000000002,0)" xlink:href="#ay"/><use transform="matrix(0.05,0,0,0.05,153.8,0)" xlink:href="#az"/><use transform="matrix(0.05,0,0,0.05,163.8,0)" xlink:href="#as"/><use transform="matrix(0.05,0,0,0.05,169.75,0)" xlink:href="#aw"/><use transform="matrix(0.05,0,0,0.05,178.75,0)" xlink:href="#ap"/><use transform="matrix(0.05,0,0,0.05,188.75,0)" xlink:href="#aA"/><use transform="matrix(0.05,0,0,0.05,198.75,0)" xlink:href="#aB"/><use transform="matrix(0.05,0,0,0.05,204.7,0)" xlink:href="#aC"/></g><path fill="#333" d="M101-234c-31-9-42 10-38 44h38v23H63V0H32v-167H5v-23h27c-7-52 17-82 69-68v24" id="aD"/><path fill="#333" d="M143 0L79-87 56-68V0H24v-261h32v163l83-92h37l-77 82L181 0h-38" id="aE"/><g id="j"><use transform="matrix(0.05,0,0,0.05,0,0)" xlink:href="#aD"/><use transform="matrix(0.05,0,0,0.05,5,0)" xlink:href="#W"/><use transform="matrix(0.05,0,0,0.05,15,0)" xlink:href="#ac"/><use transform="matrix(0.05,0,0,0.05,20.95,0)" xlink:href="#aE"/><use transform="matrix(0.05,0,0,0.05,29.950000000000003,0)" xlink:href="#aa"/><use transform="matrix(0.05,0,0,0.05,39.95,0)" xlink:href="#an"/></g><g id="k"><use transform="matrix(0.05,0,0,0.05,0,0)" xlink:href="#aD"/><use transform="matrix(0.05,0,0,0.05,5,0)" xlink:href="#ac"/><use transform="matrix(0.05,0,0,0.05,10.95,0)" xlink:href="#W"/><use transform="matrix(0.05,0,0,0.05,20.95,0)" xlink:href="#aj"/></g><g id="l"><use transform="matrix(0.05,0,0,0.05,0,0)" xlink:href="#ap"/><use transform="matrix(0.05,0,0,0.05,10,0)" xlink:href="#aq"/><use transform="matrix(0.05,0,0,0.05,20,0)" xlink:href="#ar"/><use transform="matrix(0.05,0,0,0.05,30,0)" xlink:href="#as"/><use transform="matrix(0.05,0,0,0.05,35.95,0)" xlink:href="#at"/><use transform="matrix(0.05,0,0,0.05,45.95,0)" xlink:href="#au"/><use transform="matrix(0.05,0,0,0.05,50.95,0)" xlink:href="#as"/><use transform="matrix(0.05,0,0,0.05,56.900000000000006,0)" xlink:href="#ap"/><use transform="matrix(0.05,0,0,0.05,66.9,0)" xlink:href="#aq"/><use transform="matrix(0.05,0,0,0.05,76.9,0)" xlink:href="#ar"/><use transform="matrix(0.05,0,0,0.05,86.9,0)" xlink:href="#av"/><use transform="matrix(0.05,0,0,0.05,95.9,0)" xlink:href="#as"/><use transform="matrix(0.05,0,0,0.05,101.85000000000001,0)" xlink:href="#aw"/><use transform="matrix(0.05,0,0,0.05,110.85000000000001,0)" xlink:href="#at"/><use transform="matrix(0.05,0,0,0.05,120.85000000000001,0)" xlink:href="#ax"/><use transform="matrix(0.05,0,0,0.05,130.85000000000002,0)" xlink:href="#av"/><use transform="matrix(0.05,0,0,0.05,139.85000000000002,0)" xlink:href="#at"/><use transform="matrix(0.05,0,0,0.05,149.85000000000002,0)" xlink:href="#ay"/><use transform="matrix(0.05,0,0,0.05,153.8,0)" xlink:href="#az"/></g><path fill="#fff" d="M24-231v-30h32v30H24zM24 0v-190h32V0H24" id="aF"/><path fill="#fff" d="M210-169c-67 3-38 105-44 169h-31v-121c0-29-5-50-35-48C34-165 62-65 56 0H25l-1-190h30c1 10-1 24 2 32 10-44 99-50 107 0 11-21 27-35 58-36 85-2 47 119 55 194h-31v-121c0-29-5-49-35-48" id="aG"/><path fill="#fff" d="M115-194c55 1 70 41 70 98S169 2 115 4C84 4 66-9 55-30l1 105H24l-1-265h31l2 30c10-21 28-34 59-34zm-8 174c40 0 45-34 45-75s-6-73-45-74c-42 0-51 32-51 76 0 43 10 73 51 73" id="aH"/><g id="m"><use transform="matrix(0.05,0,0,0.05,0,0)" xlink:href="#ap"/><use transform="matrix(0.05,0,0,0.05,10,0)" xlink:href="#aq"/><use transform="matrix(0.05,0,0,0.05,20,0)" xlink:href="#ar"/><use transform="matrix(0.05,0,0,0.05,30,0)" xlink:href="#as"/><use transform="matrix(0.05,0,0,0.05,35.95,0)" xlink:href="#at"/><use transform="matrix(0.05,0,0,0.05,45.95,0)" xlink:href="#au"/><use transform="matrix(0.05,0,0,0.05,50.95,0)" xlink:href="#as"/><use transform="matrix(0.05,0,0,0.05,56.900000000000006,0)" xlink:href="#ap"/><use transform="matrix(0.05,0,0,0.05,66.9,0)" xlink:href="#aq"/><use transform="matrix(0.05,0,0,0.05,76.9,0)" xlink:href="#ar"/><use transform="matrix(0.05,0,0,0.05,86.9,0)" xlink:href="#av"/><use transform="matrix(0.05,0,0,0.05,95.9,0)" xlink:href="#as"/><use transform="matrix(0.05,0,0,0.05,101.85000000000001,0)" xlink:href="#aq"/><use transform="matrix(0.05,0,0,0.05,111.85000000000001,0)" xlink:href="#aF"/><use transform="matrix(0.05,0,0,0.05,115.80000000000001,0)" xlink:href="#as"/><use transform="matrix(0.05,0,0,0.05,121.75,0)" xlink:href="#aw"/><use transform="matrix(0.05,0,0,0.05,130.75,0)" xlink:href="#at"/><use transform="matrix(0.05,0,0,0.05,140.75,0)" xlink:href="#aG"/><use transform="matrix(0.05,0,0,0.05,155.7,0)" xlink:href="#aH"/><use transform="matrix(0.05,0,0,0.05,165.7,0)" xlink:href="#at"/><use transform="matrix(0.05,0,0,0.05,175.7,0)" xlink:href="#ax"/><use transform="matrix(0.05,0,0,0.05,185.7,0)" xlink:href="#az"/><use transform="matrix(0.05,0,0,0.05,195.7,0)" xlink:href="#ax"/><use transform="matrix(0.05,0,0,0.05,205.69999999999996,0)" xlink:href="#aC"/><use transform="matrix(0.05,0,0,0.05,210.69999999999996,0)" xlink:href="#av"/></g><g id="n"><use transform="matrix(0.05,0,0,0.05,0,0)" xlink:href="#ak"/><use transform="matrix(0.05,0,0,0.05,10,0)" xlink:href="#ah"/><use transform="matrix(0.05,0,0,0.05,20,0)" xlink:href="#ac"/><use transform="matrix(0.05,0,0,0.05,25.950000000000003,0)" xlink:href="#ai"/><use transform="matrix(0.05,0,0,0.05,30.950000000000003,0)" xlink:href="#af"/><use transform="matrix(0.05,0,0,0.05,34.9,0)" xlink:href="#ah"/><use transform="matrix(0.05,0,0,0.05,44.9,0)" xlink:href="#Z"/><use transform="matrix(0.05,0,0,0.05,48.85,0)" xlink:href="#Z"/><use transform="matrix(0.05,0,0,0.05,52.800000000000004,0)" xlink:href="#ao"/></g><g id="o"><use transform="matrix(0.05,0,0,0.05,0,0)" xlink:href="#V"/><use transform="matrix(0.05,0,0,0.05,9,0)" xlink:href="#W"/><use transform="matrix(0.05,0,0,0.05,19,0)" xlink:href="#ak"/><use transform="matrix(0.05,0,0,0.05,29,0)" xlink:href="#af"/><use transform="matrix(0.05,0,0,0.05,32.95,0)" xlink:href="#aa"/><use transform="matrix(0.05,0,0,0.05,42.95,0)" xlink:href="#an"/></g><path fill="#fff" d="M177-190C167-65 218 103 67 71c-23-6-38-20-44-43l32-5c15 47 100 32 89-28v-30C133-14 115 1 83 1 29 1 15-40 15-95c0-56 16-97 71-98 29-1 48 16 59 35 1-10 0-23 2-32h30zM94-22c36 0 50-32 50-73 0-42-14-75-50-75-39 0-46 34-46 75s6 73 46 73" id="aI"/><g id="p"><use transform="matrix(0.05,0,0,0.05,0,0)" xlink:href="#ap"/><use transform="matrix(0.05,0,0,0.05,10,0)" xlink:href="#aq"/><use transform="matrix(0.05,0,0,0.05,20,0)" xlink:href="#ar"/><use transform="matrix(0.05,0,0,0.05,30,0)" xlink:href="#as"/><use transform="matrix(0.05,0,0,0.05,35.95,0)" xlink:href="#at"/><use transform="matrix(0.05,0,0,0.05,45.95,0)" xlink:href="#au"/><use transform="matrix(0.05,0,0,0.05,50.95,0)" xlink:href="#as"/><use transform="matrix(0.05,0,0,0.05,56.900000000000006,0)" xlink:href="#ap"/><use transform="matrix(0.05,0,0,0.05,66.9,0)" xlink:href="#aq"/><use transform="matrix(0.05,0,0,0.05,76.9,0)" xlink:href="#ar"/><use transform="matrix(0.05,0,0,0.05,86.9,0)" xlink:href="#av"/><use transform="matrix(0.05,0,0,0.05,95.9,0)" xlink:href="#as"/><use transform="matrix(0.05,0,0,0.05,101.85000000000001,0)" xlink:href="#aI"/><use transform="matrix(0.05,0,0,0.05,111.85000000000001,0)" xlink:href="#aB"/><use transform="matrix(0.05,0,0,0.05,117.80000000000001,0)" xlink:href="#aw"/><use transform="matrix(0.05,0,0,0.05,126.80000000000001,0)" xlink:href="#as"/><use transform="matrix(0.05,0,0,0.05,132.75,0)" xlink:href="#aq"/><use transform="matrix(0.05,0,0,0.05,142.75,0)" xlink:href="#aF"/></g><path fill="#fff" d="M85-194c31 0 48 13 60 33l-1-100h32l1 261h-30c-2-10 0-23-3-31C134-8 116 4 85 4 32 4 16-35 15-94c0-66 23-100 70-100zm9 24c-40 0-46 34-46 75 0 40 6 74 45 74 42 0 51-32 51-76 0-42-9-74-50-73" id="aJ"/><path fill="#fff" d="M179-190L93 31C79 59 56 82 12 73V49c39 6 53-20 64-50L1-190h34L92-34l54-156h33" id="aK"/><path fill="#fff" d="M-5 72V49h209v23H-5" id="aL"/><path fill="#fff" d="M33 0v-38h34V0H33" id="aM"/><g id="q"><use transform="matrix(0.05,0,0,0.05,0,0)" xlink:href="#aJ"/><use transform="matrix(0.05,0,0,0.05,10,0)" xlink:href="#az"/><use transform="matrix(0.05,0,0,0.05,20,0)" xlink:href="#aH"/><use transform="matrix(0.05,0,0,0.05,30,0)" xlink:href="#at"/><use transform="matrix(0.05,0,0,0.05,40,0)" xlink:href="#ay"/><use transform="matrix(0.05,0,0,0.05,43.95,0)" xlink:href="#aK"/><use transform="matrix(0.05,0,0,0.05,52.95,0)" xlink:href="#aL"/><use transform="matrix(0.05,0,0,0.05,62.95,0)" xlink:href="#ap"/><use transform="matrix(0.05,0,0,0.05,72.95,0)" xlink:href="#aq"/><use transform="matrix(0.05,0,0,0.05,82.95,0)" xlink:href="#ar"/><use transform="matrix(0.05,0,0,0.05,92.95,0)" xlink:href="#aL"/><use transform="matrix(0.05,0,0,0.05,102.95,0)" xlink:href="#at"/><use transform="matrix(0.05,0,0,0.05,112.95,0)" xlink:href="#au"/><use transform="matrix(0.05,0,0,0.05,117.95,0)" xlink:href="#aL"/><use transform="matrix(0.05,0,0,0.05,127.95,0)" xlink:href="#ap"/><use transform="matrix(0.05,0,0,0.05,137.95,0)" xlink:href="#aq"/><use transform="matrix(0.05,0,0,0.05,147.95,0)" xlink:href="#ar"/><use transform="matrix(0.05,0,0,0.05,157.95,0)" xlink:href="#av"/><use transform="matrix(0.05,0,0,0.05,166.95,0)" xlink:href="#aM"/><use transform="matrix(0.05,0,0,0.05,171.95,0)" xlink:href="#av"/><use transform="matrix(0.05,0,0,0.05,180.95,0)" xlink:href="#ap"/></g><path fill="#333" d="M115-194c53 0 69 39 70 98 0 66-23 100-70 100C84 3 66-7 56-30L54 0H23l1-261h32v101c10-23 28-34 59-34zm-8 174c40 0 45-34 45-75 0-40-5-75-45-74-42 0-51 32-51 76 0 43 10 73 51 73" id="aN"/><g id="r"><use transform="matrix(0.05,0,0,0.05,0,0)" xlink:href="#ag"/><use transform="matrix(0.05,0,0,0.05,10,0)" xlink:href="#ae"/><use transform="matrix(0.05,0,0,0.05,20,0)" xlink:href="#aN"/><use transform="matrix(0.05,0,0,0.05,30,0)" xlink:href="#ad"/><use transform="matrix(0.05,0,0,0.05,35.95,0)" xlink:href="#W"/><use transform="matrix(0.05,0,0,0.05,45.95,0)" xlink:href="#aD"/><use transform="matrix(0.05,0,0,0.05,50.95,0)" xlink:href="#ad"/><use transform="matrix(0.05,0,0,0.05,56.900000000000006,0)" xlink:href="#ag"/><use transform="matrix(0.05,0,0,0.05,66.9,0)" xlink:href="#ae"/><use transform="matrix(0.05,0,0,0.05,76.9,0)" xlink:href="#aN"/><use transform="matrix(0.05,0,0,0.05,86.9,0)" xlink:href="#Y"/><use transform="matrix(0.05,0,0,0.05,95.9,0)" xlink:href="#ad"/><use transform="matrix(0.05,0,0,0.05,101.85000000000001,0)" xlink:href="#ae"/><use transform="matrix(0.05,0,0,0.05,111.85000000000001,0)" xlink:href="#af"/><use transform="matrix(0.05,0,0,0.05,115.80000000000001,0)" xlink:href="#ad"/><use transform="matrix(0.05,0,0,0.05,121.75,0)" xlink:href="#V"/><use transform="matrix(0.05,0,0,0.05,130.75,0)" xlink:href="#W"/><use transform="matrix(0.05,0,0,0.05,140.75,0)" xlink:href="#aj"/><use transform="matrix(0.05,0,0,0.05,155.7,0)" xlink:href="#ak"/><use transform="matrix(0.05,0,0,0.05,165.7,0)" xlink:href="#W"/><use transform="matrix(0.05,0,0,0.05,175.7,0)" xlink:href="#X"/><use transform="matrix(0.05,0,0,0.05,185.7,0)" xlink:href="#aa"/><use transform="matrix(0.05,0,0,0.05,195.7,0)" xlink:href="#X"/><use transform="matrix(0.05,0,0,0.05,205.69999999999996,0)" xlink:href="#ai"/><use transform="matrix(0.05,0,0,0.05,210.69999999999996,0)" xlink:href="#Y"/></g><g id="s"><use transform="matrix(0.05,0,0,0.05,0,0)" xlink:href="#af"/><use transform="matrix(0.05,0,0,0.05,3.95,0)" xlink:href="#Y"/></g><g id="t"><use transform="matrix(0.05,0,0,0.05,0,0)" xlink:href="#X"/><use transform="matrix(0.05,0,0,0.05,10,0)" xlink:href="#W"/><use transform="matrix(0.05,0,0,0.05,20,0)" xlink:href="#ai"/></g><g id="u"><use transform="matrix(0.05,0,0,0.05,0,0)" xlink:href="#ak"/><use transform="matrix(0.05,0,0,0.05,10,0)" xlink:href="#ae"/><use transform="matrix(0.05,0,0,0.05,20,0)" xlink:href="#aN"/><use transform="matrix(0.05,0,0,0.05,30,0)" xlink:href="#Z"/><use transform="matrix(0.05,0,0,0.05,33.95,0)" xlink:href="#af"/><use transform="matrix(0.05,0,0,0.05,37.900000000000006,0)" xlink:href="#Y"/><use transform="matrix(0.05,0,0,0.05,46.900000000000006,0)" xlink:href="#ag"/><use transform="matrix(0.05,0,0,0.05,56.900000000000006,0)" xlink:href="#aa"/><use transform="matrix(0.05,0,0,0.05,66.9,0)" xlink:href="#an"/></g><g id="v"><use transform="matrix(0.05,0,0,0.05,0,0)" xlink:href="#ah"/><use transform="matrix(0.05,0,0,0.05,10,0)" xlink:href="#Y"/></g><g id="w"><use transform="matrix(0.05,0,0,0.05,0,0)" xlink:href="#ah"/><use transform="matrix(0.05,0,0,0.05,10,0)" xlink:href="#X"/></g><g id="x"><use transform="matrix(0.05,0,0,0.05,0,0)" xlink:href="#X"/><use transform="matrix(0.05,0,0,0.05,10,0)" xlink:href="#ak"/><use transform="matrix(0.05,0,0,0.05,20,0)" xlink:href="#aj"/></g><g id="y"><use transform="matrix(0.05,0,0,0.05,0,0)" xlink:href="#ak"/><use transform="matrix(0.05,0,0,0.05,10,0)" xlink:href="#ah"/><use transform="matrix(0.05,0,0,0.05,20,0)" xlink:href="#V"/><use transform="matrix(0.05,0,0,0.05,29,0)" xlink:href="#aE"/><use transform="matrix(0.05,0,0,0.05,38,0)" xlink:href="#ah"/><use transform="matrix(0.05,0,0,0.05,48,0)" xlink:href="#ab"/><use transform="matrix(0.05,0,0,0.05,58,0)" xlink:href="#aa"/></g><g id="z"><use transform="matrix(0.05,0,0,0.05,0,0)" xlink:href="#af"/><use transform="matrix(0.05,0,0,0.05,3.95,0)" xlink:href="#X"/></g><g id="A"><use transform="matrix(0.05,0,0,0.05,0,0)" xlink:href="#X"/><use transform="matrix(0.05,0,0,0.05,10,0)" xlink:href="#ak"/><use transform="matrix(0.05,0,0,0.05,20,0)" xlink:href="#aj"/></g><path fill="#333" d="M68-38c1 34 0 65-14 84H32c9-13 17-26 17-46H33v-38h35" id="aO"/><g id="B"><use transform="matrix(0.05,0,0,0.05,0,0)" xlink:href="#ac"/><use transform="matrix(0.05,0,0,0.05,5.95,0)" xlink:href="#aa"/><use transform="matrix(0.05,0,0,0.05,15.949999999999998,0)" xlink:href="#ak"/><use transform="matrix(0.05,0,0,0.05,25.950000000000003,0)" xlink:href="#W"/><use transform="matrix(0.05,0,0,0.05,35.95,0)" xlink:href="#Y"/><use transform="matrix(0.05,0,0,0.05,44.95,0)" xlink:href="#af"/><use transform="matrix(0.05,0,0,0.05,48.900000000000006,0)" xlink:href="#ai"/><use transform="matrix(0.05,0,0,0.05,53.900000000000006,0)" xlink:href="#W"/><use transform="matrix(0.05,0,0,0.05,63.900000000000006,0)" xlink:href="#ac"/><use transform="matrix(0.05,0,0,0.05,69.85000000000001,0)" xlink:href="#ao"/><use transform="matrix(0.05,0,0,0.05,77.50000000000001,0)" xlink:href="#aO"/></g><g id="C"><use transform="matrix(0.05,0,0,0.05,0,0)" xlink:href="#aN"/><use transform="matrix(0.05,0,0,0.05,10,0)" xlink:href="#ae"/><use transform="matrix(0.05,0,0,0.05,20,0)" xlink:href="#ai"/></g><g id="D"><use transform="matrix(0.05,0,0,0.05,0,0)" xlink:href="#af"/><use transform="matrix(0.05,0,0,0.05,3.95,0)" xlink:href="#Y"/></g><g id="E"><use transform="matrix(0.05,0,0,0.05,0,0)" xlink:href="#ae"/><use transform="matrix(0.05,0,0,0.05,10,0)" xlink:href="#Y"/><use transform="matrix(0.05,0,0,0.05,19,0)" xlink:href="#aa"/><use transform="matrix(0.05,0,0,0.05,29,0)" xlink:href="#an"/></g><use transform="matrix(0.05,0,0,0.05,0,0)" xlink:href="#ah" id="F"/><g id="G"><use transform="matrix(0.05,0,0,0.05,0,0)" xlink:href="#ab"/><use transform="matrix(0.05,0,0,0.05,10,0)" xlink:href="#af"/><use transform="matrix(0.05,0,0,0.05,13.949999999999998,0)" xlink:href="#ai"/><use transform="matrix(0.05,0,0,0.05,18.95,0)" xlink:href="#ag"/><use transform="matrix(0.05,0,0,0.05,28.950000000000003,0)" xlink:href="#ae"/><use transform="matrix(0.05,0,0,0.05,38.95,0)" xlink:href="#aN"/></g><path fill="#333" d="M87 75C49 33 22-17 22-94c0-76 28-126 65-167h31c-38 41-64 92-64 168S80 34 118 75H87" id="aP"/><g id="H"><use transform="matrix(0.05,0,0,0.05,0,0)" xlink:href="#aP"/><use transform="matrix(0.05,0,0,0.05,5.95,0)" xlink:href="#ah"/></g><path fill="#333" d="M33-261c38 41 65 92 65 168S71 34 33 75H2C39 34 66-17 66-93S39-220 2-261h31" id="aQ"/><g id="I"><use transform="matrix(0.05,0,0,0.05,0,0)" xlink:href="#ac"/><use transform="matrix(0.05,0,0,0.05,5.95,0)" xlink:href="#aa"/><use transform="matrix(0.05,0,0,0.05,15.949999999999998,0)" xlink:href="#Z"/><use transform="matrix(0.05,0,0,0.05,19.9,0)" xlink:href="#aa"/><use transform="matrix(0.05,0,0,0.05,29.899999999999995,0)" xlink:href="#ah"/><use transform="matrix(0.05,0,0,0.05,39.9,0)" xlink:href="#Y"/><use transform="matrix(0.05,0,0,0.05,48.9,0)" xlink:href="#aa"/><use transform="matrix(0.05,0,0,0.05,58.900000000000006,0)" xlink:href="#aQ"/></g><g id="J"><use transform="matrix(0.05,0,0,0.05,0,0)" xlink:href="#ai"/><use transform="matrix(0.05,0,0,0.05,5,0)" xlink:href="#ag"/><use transform="matrix(0.05,0,0,0.05,15,0)" xlink:href="#aa"/></g><g id="K"><use transform="matrix(0.05,0,0,0.05,0,0)" xlink:href="#an"/><use transform="matrix(0.05,0,0,0.05,10,0)" xlink:href="#aa"/><use transform="matrix(0.05,0,0,0.05,20,0)" xlink:href="#ak"/><use transform="matrix(0.05,0,0,0.05,30,0)" xlink:href="#Z"/><use transform="matrix(0.05,0,0,0.05,33.95,0)" xlink:href="#W"/><use transform="matrix(0.05,0,0,0.05,43.95,0)" xlink:href="#ao"/><use transform="matrix(0.05,0,0,0.05,52.95,0)" xlink:href="#aj"/><use transform="matrix(0.05,0,0,0.05,67.9,0)" xlink:href="#aa"/><use transform="matrix(0.05,0,0,0.05,77.9,0)" xlink:href="#X"/><use transform="matrix(0.05,0,0,0.05,87.9,0)" xlink:href="#ai"/></g><g id="L"><use transform="matrix(0.05,0,0,0.05,0,0)" xlink:href="#Y"/><use transform="matrix(0.05,0,0,0.05,9,0)" xlink:href="#V"/><use transform="matrix(0.05,0,0,0.05,18,0)" xlink:href="#ac"/><use transform="matrix(0.05,0,0,0.05,23.95,0)" xlink:href="#af"/><use transform="matrix(0.05,0,0,0.05,27.899999999999995,0)" xlink:href="#ak"/><use transform="matrix(0.05,0,0,0.05,37.9,0)" xlink:href="#ai"/></g><g id="M"><use transform="matrix(0.05,0,0,0.05,0,0)" xlink:href="#ae"/><use transform="matrix(0.05,0,0,0.05,10,0)" xlink:href="#Y"/><use transform="matrix(0.05,0,0,0.05,19,0)" xlink:href="#aa"/><use transform="matrix(0.05,0,0,0.05,29,0)" xlink:href="#Y"/></g><g id="N"><use transform="matrix(0.05,0,0,0.05,0,0)" xlink:href="#ab"/><use transform="matrix(0.05,0,0,0.05,10,0)" xlink:href="#ac"/><use transform="matrix(0.05,0,0,0.05,15.949999999999998,0)" xlink:href="#V"/><use transform="matrix(0.05,0,0,0.05,24.95,0)" xlink:href="#ad"/><use transform="matrix(0.05,0,0,0.05,30.899999999999995,0)" xlink:href="#V"/><use transform="matrix(0.05,0,0,0.05,39.9,0)" xlink:href="#ag"/><use transform="matrix(0.05,0,0,0.05,49.9,0)" xlink:href="#ah"/><use transform="matrix(0.05,0,0,0.05,59.900000000000006,0)" xlink:href="#ac"/><use transform="matrix(0.05,0,0,0.05,65.85,0)" xlink:href="#ai"/></g><path fill="#333" d="M205 0l-28-72H64L36 0H1l101-248h38L239 0h-34zm-38-99l-47-123c-12 45-31 82-46 123h93" id="aR"/><path fill="#333" d="M185-189c-5-48-123-54-124 2 14 75 158 14 163 119 3 78-121 87-175 55-17-10-28-26-33-46l33-7c5 56 141 63 141-1 0-78-155-14-162-118-5-82 145-84 179-34 5 7 8 16 11 25" id="aS"/><g id="O"><use transform="matrix(0.05,0,0,0.05,0,0)" xlink:href="#aR"/><use transform="matrix(0.05,0,0,0.05,12,0)" xlink:href="#aS"/></g><path fill="#333" d="M33 0v-248h34V0H33" id="aT"/><g id="P"><use transform="matrix(0.05,0,0,0.05,0,0)" xlink:href="#aT"/><use transform="matrix(0.05,0,0,0.05,5,0)" xlink:href="#aS"/><use transform="matrix(0.05,0,0,0.05,17,0)" xlink:href="#aO"/></g><path fill="#333" d="M206 0h-36l-40-164L89 0H53L-1-190h32L70-26l43-164h34l41 164 42-164h31" id="aU"/><g id="Q"><use transform="matrix(0.05,0,0,0.05,0,0)" xlink:href="#aU"/><use transform="matrix(0.05,0,0,0.05,12.950000000000001,0)" xlink:href="#ag"/><use transform="matrix(0.05,0,0,0.05,22.950000000000003,0)" xlink:href="#af"/><use transform="matrix(0.05,0,0,0.05,26.900000000000002,0)" xlink:href="#Z"/><use transform="matrix(0.05,0,0,0.05,30.85,0)" xlink:href="#aa"/></g><g id="R"><use transform="matrix(0.05,0,0,0.05,0,0)" xlink:href="#ac"/><use transform="matrix(0.05,0,0,0.05,5.95,0)" xlink:href="#aa"/><use transform="matrix(0.05,0,0,0.05,15.949999999999998,0)" xlink:href="#ak"/><use transform="matrix(0.05,0,0,0.05,25.950000000000003,0)" xlink:href="#Z"/><use transform="matrix(0.05,0,0,0.05,29.899999999999995,0)" xlink:href="#ah"/><use transform="matrix(0.05,0,0,0.05,39.9,0)" xlink:href="#V"/><use transform="matrix(0.05,0,0,0.05,48.9,0)" xlink:href="#af"/><use transform="matrix(0.05,0,0,0.05,52.85,0)" xlink:href="#X"/><use transform="matrix(0.05,0,0,0.05,62.85,0)" xlink:href="#ab"/></g><g id="S"><use transform="matrix(0.05,0,0,0.05,0,0)" xlink:href="#ab"/><use transform="matrix(0.05,0,0,0.05,10,0)" xlink:href="#ac"/><use transform="matrix(0.05,0,0,0.05,15.949999999999998,0)" xlink:href="#V"/><use transform="matrix(0.05,0,0,0.05,24.95,0)" xlink:href="#ad"/><use transform="matrix(0.05,0,0,0.05,30.899999999999995,0)" xlink:href="#ae"/><use transform="matrix(0.05,0,0,0.05,40.9,0)" xlink:href="#af"/></g><g id="T"><use transform="matrix(0.05,0,0,0.05,0,0)" xlink:href="#aN"/><use transform="matrix(0.05,0,0,0.05,10,0)" xlink:href="#ao"/></g><g id="U"><use transform="matrix(0.05,0,0,0.05,0,0)" xlink:href="#ag"/><use transform="matrix(0.05,0,0,0.05,10,0)" xlink:href="#ae"/><use transform="matrix(0.05,0,0,0.05,20,0)" xlink:href="#aN"/><use transform="matrix(0.05,0,0,0.05,30,0)" xlink:href="#ad"/><use transform="matrix(0.05,0,0,0.05,35.95,0)" xlink:href="#W"/><use transform="matrix(0.05,0,0,0.05,45.95,0)" xlink:href="#aD"/><use transform="matrix(0.05,0,0,0.05,50.95,0)" xlink:href="#ad"/><use transform="matrix(0.05,0,0,0.05,56.900000000000006,0)" xlink:href="#ag"/><use transform="matrix(0.05,0,0,0.05,66.9,0)" xlink:href="#ae"/><use transform="matrix(0.05,0,0,0.05,76.9,0)" xlink:href="#aN"/><use transform="matrix(0.05,0,0,0.05,86.9,0)" xlink:href="#Y"/><use transform="matrix(0.05,0,0,0.05,95.9,0)" xlink:href="#ad"/><use transform="matrix(0.05,0,0,0.05,101.85000000000001,0)" xlink:href="#ab"/><use transform="matrix(0.05,0,0,0.05,111.85000000000001,0)" xlink:href="#ac"/><use transform="matrix(0.05,0,0,0.05,117.80000000000001,0)" xlink:href="#V"/><use transform="matrix(0.05,0,0,0.05,126.80000000000001,0)" xlink:href="#ad"/><use transform="matrix(0.05,0,0,0.05,132.75,0)" xlink:href="#ae"/><use transform="matrix(0.05,0,0,0.05,142.75,0)" xlink:href="#af"/></g></defs></g></svg>